<svg id="Layer_1" data-name="Layer 1" xmlns="http://www.w3.org/2000/svg" viewBox="0 0 46.99 46.99"><defs><style>.cls-1{fill:#634099;}.cls-2{fill:#fff;}</style></defs><title>ask-us</title><path class="cls-1" d="M23.54,0A23.49,23.49,0,1,1,0,23.41,23.51,23.51,0,0,1,23.54,0Z"/><path class="cls-2" d="M20.36,22.17h2.89c2.31,0,4.19-1.39,4.19-3.77a3.54,3.54,0,0,0-3.77-3.73,3.67,3.67,0,0,0-3.89,3.23H14.47c0.35-4.69,3.46-7.89,9-7.89,5.16,0,9.08,3.35,9.08,8.39,0,4.19-2.85,6.85-7.43,7.39l-0.23,2.58H20.74ZM19.59,33.94a3,3,0,0,1,3.12-3A3,3,0,1,1,19.59,33.94Z"/></svg>