<svg id="Layer_1" data-name="Layer 1" xmlns="http://www.w3.org/2000/svg" viewBox="0 0 46.63 46.63"><defs><style>.cls-1{fill:#5091cd;}.cls-2{fill:#f9f9fa;}</style></defs><title>computer-lab</title><path class="cls-1" d="M23.36,0A23.31,23.31,0,1,1,0,23.23,23.33,23.33,0,0,1,23.36,0Z"/><path class="cls-2" d="M38.43,14.13a0.75,0.75,0,0,0-.75-0.7H8.95a0.75,0.75,0,0,0-.75.7V33.54a0.76,0.76,0,0,0,.76.76H37.68a0.76,0.76,0,0,0,.76-0.76V14.13Zm-2.6,17.52h-25V15.43h25V31.64Z"/><path class="cls-2" d="M28.15,36.15c-1.21-.3-1.51-1.21-1.51-2.42v-0.3H20v0.3c0,1.21-.3,2.12-1.51,2.42-0.3.07-.3,0.6,0,0.6h9.68C28.46,36.75,28.45,36.22,28.15,36.15Z"/></svg>