<svg id="Layer_1" data-name="Layer 1" xmlns="http://www.w3.org/2000/svg" viewBox="0 0 46.91 46.91"><defs><style>.cls-1,.cls-3{fill:#f3c727;}.cls-2{fill-rule:evenodd;}.cls-3{stroke:#231f20;}</style></defs><title>scanner</title><path class="cls-1" d="M23.5,0A23.46,23.46,0,1,1,0,23.37,23.47,23.47,0,0,1,23.5,0Z"/><path class="cls-2" d="M20.56,38.12c-1.11-.79-2.25-1.53-3.31-2.38C14.6,33.65,12,31.49,9.36,29.4a3.24,3.24,0,0,1-1.28-3.29C8.29,24.8,9.29,24.32,10.42,24l13-3.91,1.26-.4c-0.37-.44-0.67-0.82-1-1.16L17.2,11.24c-0.5-.56-1-1.14-0.53-1.91S17.9,8.76,18.61,9c3,1.12,6,2.22,9,3.38a3.62,3.62,0,0,1,1.49,1.14c3,4,6,7.94,9,12a8.65,8.65,0,0,1,.82,2.25v2.17C38,30.55,26.3,36,21.28,38.12H20.56ZM27.73,30l-9.49-6.16a0.77,0.77,0,0,0-.55-0.15c-1.89.57-3.77,1.17-5.9,1.85,3.2,2.33,6.13,4.48,9.1,6.6a1.29,1.29,0,0,0,1,.06C23.75,31.55,25.62,30.82,27.73,30Zm7.41-2.8-9.48-5.54a1.19,1.19,0,0,0-.78-0.19c-1.76.51-3.5,1.07-5.51,1.7,3.31,2.15,6.38,4.16,9.48,6.14a0.85,0.85,0,0,0,.67,0C31.31,28.69,33.1,28,35.14,27.22ZM19.16,34l-1-1.06a2.75,2.75,0,0,0-.6,1.14,2.69,2.69,0,0,0,.65,1.07Z"/><circle class="cls-3" cx="19.16" cy="34" r="1.41"/></svg>
